<svg width="123" height="233" viewBox="0 0 123 233" fill="none" xmlns="http://www.w3.org/2000/svg">
<rect y="25" width="123" height="177" fill="white"/>
<path d="M15.9004 1.418C17.8084 1.418 19.2004 1.784 20.0764 2.516C20.9524 3.248 21.3904 4.376 21.3904 5.9C21.3904 7.424 20.9404 8.54 20.0404 9.248C19.1524 9.956 17.7844 10.31 15.9364 10.31H13.7044V14H11.5804V1.418H15.9004ZM16.1704 8.384C17.3464 8.384 18.1444 8.162 18.5644 7.718C18.9964 7.262 19.2124 6.602 19.2124 5.738C19.2124 4.862 18.9424 4.244 18.4024 3.884C17.8624 3.524 17.0164 3.344 15.8644 3.344H13.7044V8.384H16.1704ZM35.7291 5.504C35.7291 7.58 34.8231 8.888 33.0111 9.428L36.3051 14H33.6051L30.5991 9.77H27.8091V14H25.6851V1.418H30.3651C32.2851 1.418 33.6591 1.742 34.4871 2.39C35.3151 3.038 35.7291 4.076 35.7291 5.504ZM30.4551 7.844C31.6551 7.844 32.4711 7.658 32.9031 7.286C33.3351 6.914 33.5511 6.32 33.5511 5.504C33.5511 4.676 33.3291 4.112 32.8851 3.812C32.4411 3.5 31.6491 3.344 30.5091 3.344H27.8091V7.844H30.4551ZM49.5448 4.388C48.6928 3.5 47.6428 3.056 46.3948 3.056C45.1468 3.056 44.0908 3.5 43.2268 4.388C42.3748 5.276 41.9488 6.356 41.9488 7.628C41.9488 8.888 42.3748 9.962 43.2268 10.85C44.0908 11.738 45.1468 12.182 46.3948 12.182C47.6428 12.182 48.6928 11.738 49.5448 10.85C50.4088 9.962 50.8408 8.888 50.8408 7.628C50.8408 6.356 50.4088 5.276 49.5448 4.388ZM51.1108 12.272C49.8388 13.508 48.2668 14.126 46.3948 14.126C44.5228 14.126 42.9508 13.508 41.6788 12.272C40.4068 11.024 39.7708 9.476 39.7708 7.628C39.7708 5.768 40.4068 4.22 41.6788 2.984C42.9508 1.736 44.5228 1.112 46.3948 1.112C48.2668 1.112 49.8388 1.736 51.1108 2.984C52.3828 4.22 53.0188 5.768 53.0188 7.628C53.0188 9.476 52.3828 11.024 51.1108 12.272ZM61.818 1.418C64.074 1.418 65.808 1.97 67.02 3.074C68.232 4.166 68.838 5.69 68.838 7.646C68.838 9.602 68.25 11.15 67.074 12.29C65.898 13.43 64.098 14 61.674 14H57.498V1.418H61.818ZM66.696 7.7C66.696 4.82 65.046 3.38 61.746 3.38H59.622V12.002H61.98C63.504 12.002 64.668 11.642 65.472 10.922C66.288 10.19 66.696 9.116 66.696 7.7ZM76.204 11.12C76.78 11.792 77.56 12.128 78.544 12.128C79.528 12.128 80.308 11.792 80.884 11.12C81.46 10.448 81.748 9.536 81.748 8.384V1.418H83.872V8.474C83.872 10.286 83.374 11.684 82.378 12.668C81.382 13.64 80.104 14.126 78.544 14.126C76.984 14.126 75.706 13.64 74.71 12.668C73.714 11.684 73.216 10.286 73.216 8.474V1.418H75.34V8.384C75.34 9.536 75.628 10.448 76.204 11.12ZM94.7364 12.074C95.4684 12.074 96.0984 11.954 96.6264 11.714C97.1544 11.462 97.7064 11.066 98.2824 10.526L99.6504 11.93C98.3184 13.406 96.6984 14.144 94.7904 14.144C92.8944 14.144 91.3164 13.532 90.0564 12.308C88.8084 11.084 88.1844 9.536 88.1844 7.664C88.1844 5.792 88.8204 4.232 90.0924 2.984C91.3764 1.736 92.9904 1.112 94.9344 1.112C96.8904 1.112 98.5224 1.832 99.8304 3.272L98.4804 4.748C97.8804 4.172 97.3104 3.77 96.7704 3.542C96.2424 3.314 95.6184 3.2 94.8984 3.2C93.6264 3.2 92.5584 3.614 91.6944 4.442C90.8304 5.258 90.3984 6.308 90.3984 7.592C90.3984 8.864 90.8244 9.932 91.6764 10.796C92.5404 11.648 93.5604 12.074 94.7364 12.074ZM108.8 3.362V14H106.676V3.362H102.86V1.418H112.616V3.362H108.8Z" fill="white"/>
<path d="M13.0931 209.418C15.3491 209.418 17.0831 209.97 18.2952 211.074C19.5072 212.166 20.1132 213.69 20.1132 215.646C20.1132 217.602 19.5251 219.15 18.3491 220.29C17.1731 221.43 15.3731 222 12.9491 222H8.77315V209.418H13.0931ZM17.9711 215.7C17.9711 212.82 16.3211 211.38 13.0211 211.38H10.8971V220.002H13.2551C14.7791 220.002 15.9431 219.642 16.7471 218.922C17.5631 218.19 17.9711 217.116 17.9711 215.7ZM33.4912 209.418V211.416H26.7772V214.746H32.8072V216.636H26.7772V220.002H33.7072V222H24.6532V209.418H33.4912ZM42.0286 211.074C41.4166 211.074 40.9126 211.2 40.5166 211.452C40.1206 211.704 39.9226 212.088 39.9226 212.604C39.9226 213.108 40.1206 213.498 40.5166 213.774C40.9126 214.038 41.7526 214.326 43.0366 214.638C44.3326 214.95 45.3046 215.388 45.9526 215.952C46.6126 216.516 46.9426 217.35 46.9426 218.454C46.9426 219.546 46.5286 220.434 45.7006 221.118C44.8726 221.802 43.7866 222.144 42.4426 222.144C40.4746 222.144 38.7286 221.466 37.2046 220.11L38.5366 218.508C39.8086 219.612 41.1286 220.164 42.4966 220.164C43.1806 220.164 43.7206 220.02 44.1166 219.732C44.5246 219.432 44.7286 219.042 44.7286 218.562C44.7286 218.07 44.5366 217.692 44.1526 217.428C43.7806 217.152 43.1326 216.906 42.2086 216.69C41.2846 216.462 40.5826 216.258 40.1026 216.078C39.6226 215.886 39.1966 215.64 38.8246 215.34C38.0806 214.776 37.7086 213.912 37.7086 212.748C37.7086 211.584 38.1286 210.69 38.9686 210.066C39.8206 209.43 40.8706 209.112 42.1186 209.112C42.9226 209.112 43.7206 209.244 44.5126 209.508C45.3046 209.772 45.9886 210.144 46.5646 210.624L45.4306 212.226C45.0586 211.89 44.5546 211.614 43.9186 211.398C43.2826 211.182 42.6526 211.074 42.0286 211.074ZM51.3685 209.418H53.4925V222H51.3685V209.418ZM67.4879 215.88H69.6119V220.182C68.4239 221.49 66.7259 222.144 64.5179 222.144C62.6579 222.144 61.0979 221.532 59.8379 220.308C58.5899 219.084 57.9659 217.536 57.9659 215.664C57.9659 213.792 58.6019 212.232 59.8739 210.984C61.1579 209.736 62.7059 209.112 64.5179 209.112C66.3299 209.112 67.8359 209.64 69.0359 210.696L67.9019 212.316C67.4099 211.896 66.9119 211.608 66.4079 211.452C65.9159 211.284 65.3399 211.2 64.6799 211.2C63.4079 211.2 62.3399 211.614 61.4759 212.442C60.6119 213.258 60.1799 214.338 60.1799 215.682C60.1799 217.014 60.5999 218.088 61.4399 218.904C62.2799 219.708 63.2939 220.11 64.4819 220.11C65.6819 220.11 66.6839 219.852 67.4879 219.336V215.88ZM83.6309 209.418H85.7549V222H83.4509L76.3229 212.82V222H74.1989V209.418H76.3229L83.6309 218.814V209.418ZM99.8838 209.418V211.416H93.1698V214.746H99.1998V216.636H93.1698V220.002H100.1V222H91.0458V209.418H99.8838ZM114.667 213.504C114.667 215.58 113.761 216.888 111.949 217.428L115.243 222H112.543L109.537 217.77H106.747V222H104.623V209.418H109.303C111.223 209.418 112.597 209.742 113.425 210.39C114.253 211.038 114.667 212.076 114.667 213.504ZM109.393 215.844C110.593 215.844 111.409 215.658 111.841 215.286C112.273 214.914 112.489 214.32 112.489 213.504C112.489 212.676 112.267 212.112 111.823 211.812C111.379 211.5 110.587 211.344 109.447 211.344H106.747V215.844H109.393Z" fill="white"/>
<path d="M31 34H46.5236V62.7382L72.7945 34H92L64.336 64.9411C66.7243 68.2789 71.1359 74.5205 77.571 83.6659C84.006 92.7447 88.8157 99.5203 92 103.993H73.8891L53.4894 76.3562L46.5236 84.1666V103.993H31V34Z" fill="#33432F"/>
<path d="M38.0454 193V123.007H53.5691V179.082H83.2232V193H38.0454Z" fill="#33432F"/>
</svg>
