<?xml version="1.0" encoding="utf-8"?>
<!-- Generator: Adobe Illustrator 24.1.3, SVG Export Plug-In . SVG Version: 6.00 Build 0)  -->
<svg version="1.1" id="Layer_1" xmlns="http://www.w3.org/2000/svg" xmlns:xlink="http://www.w3.org/1999/xlink" x="0px" y="0px"
	 viewBox="0 0 100 100" xml:space="preserve">
<style type="text/css">
	.st0{fill-rule:evenodd;clip-rule:evenodd;fill:#FFFFFF;}
</style>
<path width="100%" height="100%" class="st0" d="M49.4,17.9C59,27.3,63.9,36,64.1,44c0,7.3-3.9,14.1-11.7,20.3l-2.9-29.2l-2.8,28.1c-2.8-2.4-5.1-5-6.8-7.6
	c-2.6-3.9-3.9-8-3.9-12.2C36,35.5,40.5,27,49.4,17.9z M38.3,63.2c2.4,2.2,4.1,6.7,5.2,13.3c-6.1-5.3-11-8.5-14.6-9.4
	c-3.6-1-6.2-1.6-7.9-1.8c-1.7-0.2-3.2-0.2-4.5-0.1l4.9,1.9c6,2.2,12.2,6.5,18.8,13.1c-1.9,0.1-4.6,0.4-7.9,1
	c-3.5,0.6-6.1,0.8-7.7,0.8c-2.8,0-5.4-0.8-7.7-2.4c-2.1-1.4-3.8-3.4-4.9-6.1c-2.2-4.9-3.7-8-4.6-9.3l0.1,0.1C6.7,63.1,5.9,62,5,61
	c1.1-0.3,2.3-0.7,3.6-1.2l0,0.1c4.9-1.5,9.6-2.3,13.9-2.3c4.5,0,8.5,1,12.1,3C35.9,61.3,37.2,62.2,38.3,63.2L38.3,63.2L38.3,63.2z
	 M95,61c-0.9,1-1.7,2.2-2.5,3.5l0.1-0.1c-0.8,1.3-2.4,4.4-4.6,9.3c-1.1,2.6-2.8,4.6-4.9,6.1c-2.3,1.6-4.9,2.4-7.7,2.4
	c-1.6,0-4.2-0.3-7.7-0.8c-3.4-0.6-6-0.9-7.9-1c6.6-6.5,12.8-10.9,18.8-13.1l4.9-1.9c-1.3-0.1-2.8-0.1-4.5,0.1
	c-1.7,0.2-4.4,0.8-7.9,1.8c-3.6,0.9-8.4,4.1-14.6,9.4c1.1-6.7,2.8-11.1,5.2-13.3v0c1.2-1,2.5-1.9,3.8-2.7c3.5-2,7.6-3,12.1-3
	c4.4,0,9,0.8,13.9,2.3l0-0.1C92.7,60.2,93.9,60.6,95,61z"/>
</svg>
